# xmcd
# 
# Track frame offsets:
#     150
#     12799
#     26872
#     38334
#     54143
#     69652
#     89263
#     105632
#     119046
#     133573
#     146438
#     157771
#     171432
# 
# Disc length: 2485
# 
# Revision: 1
# Processed by: cddbd v1.5.2PL0 Copyright (c) Steve Scherf et al.
# Submitted via: fre:ac v1.0.31
# 
DISCID=a309b30d
DTITLE=Christmas - Charlie McCoy Classic Country Christmas
DYEAR=2017
DGENRE=Christmas
TTITLE0=The Most Wonderful Time Of The Year
TTITLE1=Silver Bells
TTITLE2=Winter Wonderland
TTITLE3=I'll Be Home For Christmas
TTITLE4=Tender Tennessee Christmas
TTITLE5=Christmas Time Is Here
TTITLE6=Feliz Navidad
TTITLE7=Christmas In Killarney
TTITLE8=Mary, Did You Know?
TTITLE9=O Beautiful Star Of Bethlehem
TTITLE10=Ave Maria
TTITLE11=Go Tell It On The Mountain - Silent Night
TTITLE12=O Holy Night
EXTD=
EXTT0=
EXTT1=
EXTT2=
EXTT3=
EXTT4=
EXTT5=
EXTT6=
EXTT7=
EXTT8=
EXTT9=
EXTT10=
EXTT11=
EXTT12=
PLAYORDER=
